<svg id="Camada_1" data-name="Camada 1" xmlns="http://www.w3.org/2000/svg" viewBox="0 0 1000 1000"><defs><style>.cls-1{font-size:72px;}.cls-1,.cls-10,.cls-2{font-family:OpenSans-Bold, Open Sans;font-weight:700;}.cls-2{font-size:32px;fill:#29abe2;}.cls-3{fill:#000;}.cls-4{fill:#f15a24;}.cls-5,.cls-6,.cls-8,.cls-9{fill:#fff;stroke:#000;}.cls-12,.cls-13,.cls-5,.cls-6,.cls-8,.cls-9{stroke-miterlimit:10;}.cls-12,.cls-13,.cls-5{stroke-width:5px;}.cls-6{stroke-width:2px;}.cls-7{fill:#e6e6e6;}.cls-9{stroke-width:3px;}.cls-10{font-size:18px;}.cls-11{fill:#1e1e1e;}.cls-12,.cls-13{fill:none;}.cls-12{stroke:red;}.cls-13{stroke:blue;}</style></defs><title>Prancheta 1 cópia</title><text class="cls-1" transform="translate(60.71 121.48)">Circuito Atual</text><text class="cls-2" transform="translate(60.71 184.08)"><tspan xml:space="preserve"> pinMode</tspan><tspan class="cls-3" x="148.5" y="0">(4 , </tspan><tspan class="cls-4" x="203.52" y="0">INPUT</tspan><tspan class="cls-3" x="302.94" y="0">);</tspan></text><circle class="cls-5" cx="277.5" cy="672.5" r="209.5"/><circle class="cls-6" cx="277.5" cy="672.5" r="180.85"/><path class="cls-7" d="M182,706.14a8.8,8.8,0,0,1-8.79-8.79V651.19a8.81,8.81,0,0,1,8.79-8.8h18.12v63.75Z"/><path d="M199.66,642.89v62.75H182a8.3,8.3,0,0,1-8.29-8.29V651.19a8.3,8.3,0,0,1,8.29-8.3h17.62m1-1H182a9.29,9.29,0,0,0-9.29,9.3v46.16a9.29,9.29,0,0,0,9.29,9.29h18.62V641.89Z"/><path class="cls-7" d="M170.62,700.28a1.46,1.46,0,0,1-1.46-1.46v-49.1a1.46,1.46,0,0,1,1.46-1.47h2v52Z"/><path d="M172.12,648.75v51h-1.5a1,1,0,0,1-1-1v-49.1a1,1,0,0,1,1-1h1.5m1-1h-2.5a2,2,0,0,0-2,2v49.1a2,2,0,0,0,2,2h2.5v-53Z"/><path class="cls-7" d="M356.33,706.14V642.39h18.12a8.81,8.81,0,0,1,8.79,8.8v46.16a8.8,8.8,0,0,1-8.79,8.79Z"/><path d="M374.44,642.89a8.31,8.31,0,0,1,8.3,8.3v46.16a8.3,8.3,0,0,1-8.3,8.29H356.83V642.89h17.61m0-1H355.83v64.75h18.61a9.29,9.29,0,0,0,9.3-9.29V651.19a9.3,9.3,0,0,0-9.3-9.3Z"/><path class="cls-7" d="M383.87,700.28v-52h2a1.46,1.46,0,0,1,1.46,1.47v49.1a1.46,1.46,0,0,1-1.46,1.46Z"/><path d="M385.87,648.75a1,1,0,0,1,1,1v49.1a1,1,0,0,1-1,1h-1.5v-51h1.5m0-1h-2.5v53h2.5a2,2,0,0,0,2-2v-49.1a2,2,0,0,0-2-2Z"/><polygon class="cls-6" points="337.52 677.78 337.52 675.88 344.63 675.88 344.63 668.78 346.52 668.78 346.52 675.88 353.63 675.88 353.63 677.78 346.52 677.78 346.52 684.89 344.63 684.89 344.63 677.78 337.52 677.78"/><rect class="cls-6" x="392.13" y="675.32" width="14.91" height="1.75" transform="translate(799.17 1352.38) rotate(180)"/><polygon class="cls-6" points="218.28 675.88 218.28 677.78 211.17 677.78 211.17 684.89 209.28 684.89 209.28 677.78 202.17 677.78 202.17 675.88 209.28 675.88 209.28 668.78 211.17 668.78 211.17 675.88 218.28 675.88"/><rect class="cls-6" x="148.76" y="676.6" width="14.91" height="1.75"/><path class="cls-6" d="M261.5,583.56V626a2.23,2.23,0,0,1-2.23,2.23h-52.1c-2.23,0-2.23,0-2.23,2.23v38a2.23,2.23,0,0,1-2.23,2.23h0a2.23,2.23,0,0,1-2.24-2.23V626a2.24,2.24,0,0,1,2.24-2.24H254.8c2.23,0,2.23,0,2.23-2.23v-38a2.23,2.23,0,0,1,2.24-2.23h0A2.23,2.23,0,0,1,261.5,583.56Z"/><path class="cls-6" d="M277.5,583.56V626a2.23,2.23,0,0,0,2.23,2.23h52.1c55.82,0,55.82,0,55.82,2.23v38a2.23,2.23,0,0,0,2.23,2.23h0a2.23,2.23,0,0,0,2.23-2.23V626a2.23,2.23,0,0,0-2.23-2.24H284.2c-2.23,0-2.23,0-2.23-2.23v-38a2.23,2.23,0,0,0-2.24-2.23h0A2.23,2.23,0,0,0,277.5,583.56Z"/><rect class="cls-8" x="250.34" y="585.8" width="37.96" height="5.21"/><path class="cls-8" d="M264.53,536.31h9.56a11.59,11.59,0,0,1,11.59,11.59v37.9a0,0,0,0,1,0,0H252.94a0,0,0,0,1,0,0V547.9A11.59,11.59,0,0,1,264.53,536.31Z"/><path class="cls-6" d="M328.9,711.76v34.42H164V666.92h4v74.79H326.27v-30h.35a1.25,1.25,0,0,0,0-.19,3.25,3.25,0,0,0-.78-1.55c-.19-.22-.42-.41-.66-.64l1.52-1.27a5.32,5.32,0,0,1,1.78,3.46,1.21,1.21,0,0,1,0,.19Z"/><path d="M329.08,703.43a1.62,1.62,0,0,0,0-.22h0a1.4,1.4,0,0,0,0-.35,8.92,8.92,0,0,0-.62-2.36,14.36,14.36,0,0,0-1.19-1.91,6.54,6.54,0,0,0,1.83-4.29,6.62,6.62,0,0,0-1.87-4.35,6,6,0,0,0,0-8.7,6.69,6.69,0,0,0,1.87-4.35,6.61,6.61,0,0,0-1.86-4.34c2.15-2.59,2.79-5.31,0-8.72.3-.42.59-.78.84-1.18a5.73,5.73,0,0,0,1-2.95,1.37,1.37,0,0,0-1.28-1.51,1.39,1.39,0,0,0-1.74,1.18,3.31,3.31,0,0,1-1.1,2.16.7.7,0,0,1-.65.11,14.93,14.93,0,0,0-8.49-1.82,6.48,6.48,0,0,0-3.47,1,3.71,3.71,0,0,0,.14,6.11,4.74,4.74,0,0,0,1.45.62,14.18,14.18,0,0,0,10.17-1.32c.2-.11.59-.17.72,0,1.45,1.47,1.63,2.34.23,3.93-.26.3-.47.39-.84.18a14.33,14.33,0,0,0-9.32-1.7,6.67,6.67,0,0,0-2.5.91,3.68,3.68,0,0,0,.05,6.1,5.07,5.07,0,0,0,1.63.69,14.3,14.3,0,0,0,10-1.34c.21-.12.53-.24.69-.15a2.37,2.37,0,0,1,.56,3.72c-.08.11-.19.2-.27.31a.52.52,0,0,1-.79.16,14.81,14.81,0,0,0-8.74-1.79,6.07,6.07,0,0,0-3.32,1.12,3.73,3.73,0,0,0,.07,5.85,5,5,0,0,0,1.67.77,14.15,14.15,0,0,0,10.22-1.34c.18-.1.52-.18.62-.08,1.45,1.45,1.71,2.3.39,3.89a.69.69,0,0,1-1,.22,14.38,14.38,0,0,0-9.2-1.64,7.23,7.23,0,0,0-2.05.62,3.73,3.73,0,0,0,0,6.65,4,4,0,0,0,.92.35,14.12,14.12,0,0,0,10.29-1.29c.18-.1.42-.24.58-.18a2.5,2.5,0,0,1,.93,3.36c-.16.25-.37.47-.55.71a.56.56,0,0,1-.84.18,14.42,14.42,0,0,0-7.83-1.85,7.81,7.81,0,0,0-3.77.89,3.54,3.54,0,0,0-1.78,3.46,3.32,3.32,0,0,0,1.89,3,6.87,6.87,0,0,0,2,.65,14.3,14.3,0,0,0,9.58-1.6.47.47,0,0,1,.46,0,3.45,3.45,0,0,1,1.29,2.18s0,0,0,.06a3.31,3.31,0,0,1-1.09,2.08.65.65,0,0,1-.65.11,14.93,14.93,0,0,0-8.49-1.82,6.48,6.48,0,0,0-3.47,1,3.72,3.72,0,0,0,.14,6.12,5,5,0,0,0,1.45.62A14.18,14.18,0,0,0,324.11,710c.2-.11.59-.17.72,0a3.65,3.65,0,0,1,1.17,1.81h.62a1.25,1.25,0,0,0,0-.19,3.25,3.25,0,0,0-.78-1.55c-.19-.22-.42-.41-.66-.64l1.52-1.27a5.32,5.32,0,0,1,1.78,3.46,1.21,1.21,0,0,1,0,.19h.61a7.19,7.19,0,0,0-1.84-4.2c.3-.41.59-.78.84-1.17A5.8,5.8,0,0,0,329.08,703.43Zm-10.56-36.22a24,24,0,0,1-4.31-.27,3.62,3.62,0,0,1-1.65-.77,2.89,2.89,0,0,1,0-4.64,6.05,6.05,0,0,1,2.55-.93,14.15,14.15,0,0,1,8.4,1.44c.15.08.3.18.57.35-.7.41-1.3.79-1.93,1.09-.19.09-.49,0-.73-.12a12.29,12.29,0,0,0-6.57-.63,2.21,2.21,0,0,0-.92.29,1.39,1.39,0,0,0-.62.81,1.08,1.08,0,0,0,.56.77,6.85,6.85,0,0,0,1.87.52,11.55,11.55,0,0,0,8.91-2.44,4.82,4.82,0,0,0,2-3.14.88.88,0,0,1,1.16-.71c.54.14.72.5.64,1.13a6.23,6.23,0,0,1-2,3.68A11.91,11.91,0,0,1,318.52,667.21Zm2.44-3.33c-1.77.9-5.95.81-7.07-.18A11.54,11.54,0,0,1,321,663.88Zm.09,11.61a13.43,13.43,0,0,1-7.06.11,3,3,0,0,1-2.47-2.37,2.73,2.73,0,0,1,1.3-3.17,8.48,8.48,0,0,1,2.8-.81,13.59,13.59,0,0,1,7.95,1.5l.58.33c-.74.43-1.36.81-2,1.13-.14.07-.37,0-.55-.09a12.72,12.72,0,0,0-6.51-.72,2.94,2.94,0,0,0-1.12.32c-.26.14-.62.48-.61.72a1.16,1.16,0,0,0,.55.85,5.44,5.44,0,0,0,1.67.49,11.45,11.45,0,0,0,8.89-2.25A8.27,8.27,0,0,0,326,670a2.67,2.67,0,0,0-.14-3.71c-.19-.23-.42-.41-.66-.65l1.52-1.26a4.92,4.92,0,0,1,.81,6.75A11.24,11.24,0,0,1,321.05,675.49Zm-.18-2.85c-1.67.83-5.88.74-6.88-.15C315.14,671.67,319.08,671.76,320.87,672.64Zm-7,11.62a3.6,3.6,0,0,1-1.07-.5,2.79,2.79,0,0,1-1.36-2.56,2.82,2.82,0,0,1,1.44-2.51,7.49,7.49,0,0,1,3.72-.82,13.91,13.91,0,0,1,7,1.58l.5.3c-1,.61-1.67,1.41-2.91.9A10.9,10.9,0,0,0,315,680a3.29,3.29,0,0,0-1.11.36c-.25.16-.59.51-.57.75a1.26,1.26,0,0,0,.56.85,2.83,2.83,0,0,0,1.16.41,11.66,11.66,0,0,0,9.29-2.1,8.08,8.08,0,0,0,1.54-1.55,2.73,2.73,0,0,0,0-3.68c-.2-.29-.42-.56-.65-.84l1.41-1.16a4.87,4.87,0,0,1,1.13,6.12,9,9,0,0,1-2,2.45A13.15,13.15,0,0,1,313.87,684.26Zm7-3c-1.15.94-5.86.88-7-.15A12,12,0,0,1,320.87,681.23Zm4.24,9.7a13.44,13.44,0,0,1-10.64,2.18,4.92,4.92,0,0,1-2-.93,2.89,2.89,0,0,1,.13-4.55,6.7,6.7,0,0,1,2.74-1,13.64,13.64,0,0,1,8.28,1.49l.28.16a.93.93,0,0,1,.15.2c-.63.37-1.22.74-1.85,1.05-.15.08-.41,0-.61-.12a12.31,12.31,0,0,0-6.76-.67,3.11,3.11,0,0,0-1,.38.79.79,0,0,0,0,1.45,5.42,5.42,0,0,0,1.86.57,11.52,11.52,0,0,0,9.2-2.53,7.48,7.48,0,0,0,1.07-1.17,2.78,2.78,0,0,0,0-3.74c-.19-.26-.4-.51-.63-.81l1.4-1.15a4.89,4.89,0,0,1,1.36,5.7A8.08,8.08,0,0,1,325.11,690.93Zm-4.24-.88a9.91,9.91,0,0,1-6.85-.15A10,10,0,0,1,320.87,690.05Zm2.93,10.41a13.41,13.41,0,0,1-10,1.18,2.89,2.89,0,0,1-2.33-2.44,2.65,2.65,0,0,1,1.1-2.88,8.57,8.57,0,0,1,2.88-1,13.42,13.42,0,0,1,8.48,1.7,2.37,2.37,0,0,1-2.63,1,12.55,12.55,0,0,0-6.33-.62,4.29,4.29,0,0,0-1.23.43.78.78,0,0,0,0,1.41,4.15,4.15,0,0,0,1.53.55,11.61,11.61,0,0,0,9.32-2.28,8.4,8.4,0,0,0,1.41-1.5,2.69,2.69,0,0,0,0-3.45c-.23-.33-.49-.63-.74-1,.46-.4.93-.78,1.39-1.16a4.94,4.94,0,0,1,1,6.41A9.73,9.73,0,0,1,323.8,700.46Zm-3-1.71a10,10,0,0,1-6.81-.13A9.57,9.57,0,0,1,320.83,698.75Zm5.66,8.62a11.86,11.86,0,0,1-8,3.57,24,24,0,0,1-4.31-.27,3.62,3.62,0,0,1-1.65-.77,2.89,2.89,0,0,1,0-4.64,6.05,6.05,0,0,1,2.55-.93,14.15,14.15,0,0,1,8.4,1.44c.15.08.3.18.57.35-.7.41-1.3.79-1.93,1.09-.19.09-.49,0-.73-.11a12.29,12.29,0,0,0-6.57-.64,2.09,2.09,0,0,0-.92.3,1.37,1.37,0,0,0-.62.8,1.06,1.06,0,0,0,.56.77,7.25,7.25,0,0,0,1.87.53,11.59,11.59,0,0,0,8.91-2.45,5.22,5.22,0,0,0,1.76-2.32,3.4,3.4,0,0,0,.2-.82.26.26,0,0,1,0-.11,4.86,4.86,0,0,0-.2-.91,5,5,0,0,0-1.3-1.83l1.54-1.27a5.94,5.94,0,0,1,1.66,2.94c.05.24.08.49.11.76a1,1,0,0,1,0,.39,1.69,1.69,0,0,1,0,.45,6.25,6.25,0,0,1-.12.65A6.51,6.51,0,0,1,326.49,707.37Zm-5.53.24c-1.77.9-5.95.81-7.07-.18A11.54,11.54,0,0,1,321,707.61Z"/><text class="cls-1" transform="translate(898.95 908.72)">2</text><rect class="cls-5" x="651.5" y="73.5" width="270" height="512" rx="42.18"/><rect class="cls-9" x="693.5" y="73.5" width="186" height="114"/><polygon class="cls-5" points="824.5 544.5 824.5 600.5 748.5 600.5 748.5 544.5 773.5 544.5 773.5 549.5 798.5 549.5 798.5 544.5 824.5 544.5"/><rect class="cls-5" x="761.5" y="578.5" width="8" height="12"/><rect class="cls-5" x="803.5" y="578.5" width="8" height="12"/><polygon class="cls-9" points="869.5 83.5 869.5 92.5 840.5 92.5 840.5 158.5 808.5 158.5 808.5 92.5 798.5 92.5 798.5 158.5 766.5 158.5 766.5 92.5 756.5 92.5 756.5 158.5 724.5 158.5 724.5 92.5 714.5 92.5 714.5 168.5 777.5 168.5 777.5 179.5 703.5 179.5 703.5 83.5 735.5 83.5 735.5 147.5 745.5 147.5 745.5 83.5 777.5 83.5 777.5 149.5 787.5 149.5 787.5 83.5 819.5 83.5 819.5 149.5 829.5 149.5 829.5 83.5 869.5 83.5"/><circle class="cls-9" cx="677.5" cy="313.5" r="7"/><circle class="cls-9" cx="677.5" cy="476.5" r="7"/><text class="cls-10" transform="translate(664.27 296.33)">GND</text><text class="cls-10" transform="translate(667.12 461.33)">D2</text><circle class="cls-11" cx="209.5" cy="647.5" r="8.5"/><circle class="cls-11" cx="676.5" cy="476.5" r="8.5"/><circle class="cls-11" cx="676.5" cy="313.5" r="8.5"/><path class="cls-12" d="M207,645C145.5,384.5,546.5,252.5,678,476"/><circle class="cls-11" cx="399.5" cy="656.5" r="8.5"/><path class="cls-13" d="M400,657c10.27-179.36,94.25-300.31,277-343"/></svg>