<svg id="Camada_1" data-name="Camada 1" xmlns="http://www.w3.org/2000/svg" viewBox="0 0 1000 1000"><defs><style>.cls-1,.cls-2,.cls-4{fill:#fff;stroke:#000;stroke-miterlimit:10;}.cls-1{stroke-width:5px;}.cls-2{stroke-width:2px;}.cls-3{fill:#e6e6e6;}.cls-5{font-size:72px;font-family:OpenSans-Bold, Open Sans;font-weight:700;}</style></defs><title>Prancheta 1</title><circle class="cls-1" cx="493" cy="500" r="394"/><circle class="cls-2" cx="493" cy="500" r="340.11"/><path class="cls-3" d="M313.48,563.71a17,17,0,0,1-17-17V459.92a17,17,0,0,1,17-17H348V563.71Z"/><path d="M347.49,443.44V563.21h-34A16.49,16.49,0,0,1,297,546.73V459.92a16.49,16.49,0,0,1,16.48-16.48h34m1-1h-35A17.48,17.48,0,0,0,296,459.92v86.81a17.49,17.49,0,0,0,17.48,17.48h35V442.44Z"/><path class="cls-3" d="M292,552.69a3.2,3.2,0,0,1-3.19-3.19V457.15A3.19,3.19,0,0,1,292,454h4.21v98.73Z"/><path d="M295.7,454.46v97.73H292a2.7,2.7,0,0,1-2.69-2.69V457.15a2.7,2.7,0,0,1,2.69-2.69h3.71m1-1H292a3.69,3.69,0,0,0-3.69,3.69V549.5a3.69,3.69,0,0,0,3.69,3.69h4.71V453.46Z"/><path class="cls-3" d="M640.81,563.71V442.94h34.51a17,17,0,0,1,17,17v86.81a17,17,0,0,1-17,17Z"/><path d="M675.32,443.44a16.49,16.49,0,0,1,16.48,16.48v86.81a16.49,16.49,0,0,1-16.48,16.48h-34V443.44h34m0-1h-35V564.21h35a17.49,17.49,0,0,0,17.48-17.48V459.92a17.48,17.48,0,0,0-17.48-17.48Z"/><path class="cls-3" d="M692.6,552.69V454h4.21a3.19,3.19,0,0,1,3.19,3.19V549.5a3.2,3.2,0,0,1-3.19,3.19Z"/><path d="M696.81,454.46a2.7,2.7,0,0,1,2.69,2.69V549.5a2.7,2.7,0,0,1-2.69,2.69H693.1V454.46h3.71m0-1H692.1v99.73h4.71a3.7,3.7,0,0,0,3.69-3.69V457.15a3.69,3.69,0,0,0-3.69-3.69Z"/><polygon class="cls-2" points="605.87 509.93 605.87 506.37 619.24 506.37 619.24 493 622.8 493 622.8 506.37 636.17 506.37 636.17 509.93 622.8 509.93 622.8 523.29 619.24 523.29 619.24 509.93 605.87 509.93"/><rect class="cls-2" x="708.59" y="505.29" width="28.04" height="3.3" transform="translate(1445.21 1013.89) rotate(180)"/><polygon class="cls-2" points="381.62 506.37 381.62 509.93 368.26 509.93 368.26 523.29 364.69 523.29 364.69 509.93 351.33 509.93 351.33 506.37 364.69 506.37 364.69 493 368.26 493 368.26 506.37 381.62 506.37"/><rect class="cls-2" x="250.87" y="507.7" width="28.04" height="3.3"/><path class="cls-2" d="M462.91,332.74v79.78a4.2,4.2,0,0,1-4.2,4.2h-98c-4.2,0-4.2,0-4.2,4.2V492.3a4.2,4.2,0,0,1-4.19,4.2h0a4.2,4.2,0,0,1-4.2-4.2V412.52a4.2,4.2,0,0,1,4.2-4.2h98c4.2,0,4.2,0,4.2-4.2V332.74a4.2,4.2,0,0,1,4.2-4.2h0A4.2,4.2,0,0,1,462.91,332.74Z"/><path class="cls-2" d="M493,332.74v79.78a4.2,4.2,0,0,0,4.2,4.2h98c105,0,105,0,105,4.2V492.3a4.2,4.2,0,0,0,4.2,4.2h0a4.2,4.2,0,0,0,4.2-4.2V412.52a4.2,4.2,0,0,0-4.2-4.2H505.6c-4.2,0-4.2,0-4.2-4.2V332.74a4.2,4.2,0,0,0-4.2-4.2h0A4.2,4.2,0,0,0,493,332.74Z"/><rect class="cls-4" x="441.91" y="336.94" width="71.38" height="9.8"/><path class="cls-4" d="M468.62,243.87h18a21.8,21.8,0,0,1,21.8,21.8v71.27a0,0,0,0,1,0,0H446.81a0,0,0,0,1,0,0V265.67A21.8,21.8,0,0,1,468.62,243.87Z"/><path class="cls-2" d="M589.68,573.83v64.73H279.55V489.5H287V630.17H584.72V573.83h.66a2.11,2.11,0,0,0,0-.35,6.21,6.21,0,0,0-1.47-2.92c-.37-.42-.8-.77-1.24-1.21l2.86-2.38a10,10,0,0,1,3.34,6.51l0,.35Z"/><path d="M590,558.16c0-.13,0-.26,0-.4v0a3.13,3.13,0,0,0,0-.67,16.47,16.47,0,0,0-1.17-4.42,25.94,25.94,0,0,0-2.24-3.61c1.89-2.28,3.48-4.76,3.45-8.07a12.49,12.49,0,0,0-3.53-8.18c2-2.4,3.56-4.87,3.53-8.18s-1.56-5.88-3.51-8.18c1.93-2.39,3.55-4.85,3.51-8.18a12.46,12.46,0,0,0-3.51-8.16c4-4.87,5.26-10,0-16.4.57-.78,1.11-1.47,1.58-2.21a10.69,10.69,0,0,0,1.9-5.56,2.56,2.56,0,0,0-2.41-2.84c-1.78-.19-3.12.65-3.26,2.22a6.2,6.2,0,0,1-2.07,4.06,1.26,1.26,0,0,1-1.23.21,28,28,0,0,0-16-3.42,12.28,12.28,0,0,0-6.53,1.93,7,7,0,0,0,.27,11.51,9.39,9.39,0,0,0,2.71,1.17,26.74,26.74,0,0,0,19.13-2.49c.38-.22,1.11-.33,1.36-.08,2.73,2.76,3.07,4.39.43,7.39a1.06,1.06,0,0,1-1.57.33,26.93,26.93,0,0,0-17.53-3.18,12.18,12.18,0,0,0-4.7,1.71,6.9,6.9,0,0,0,.09,11.46,9.3,9.3,0,0,0,3.06,1.29,26.73,26.73,0,0,0,18.77-2.52c.4-.21,1-.44,1.31-.26,2.61,1.55,3,4.58,1,7-.16.21-.36.39-.51.6a1,1,0,0,1-1.49.3,27.7,27.7,0,0,0-16.44-3.37,11.26,11.26,0,0,0-6.23,2.11,7,7,0,0,0,.13,11,9.14,9.14,0,0,0,3.12,1.45A26.67,26.67,0,0,0,580.74,521c.34-.19,1-.35,1.16-.14,2.72,2.73,3.21,4.31.74,7.3a1.3,1.3,0,0,1-2,.42,27.08,27.08,0,0,0-17.3-3.09,13.65,13.65,0,0,0-3.86,1.17,7,7,0,0,0,0,12.51,7.83,7.83,0,0,0,1.72.66,26.48,26.48,0,0,0,19.35-2.43c.34-.19.8-.45,1.1-.33,2.08.8,3,4.3,1.76,6.31-.31.48-.7.89-1,1.34a1.06,1.06,0,0,1-1.58.34,27,27,0,0,0-14.74-3.48,14.57,14.57,0,0,0-7.08,1.68,6.64,6.64,0,0,0-3.34,6.49,6.21,6.21,0,0,0,3.54,5.61,12.73,12.73,0,0,0,3.73,1.21c6.25,1,12.31.3,18-3a.9.9,0,0,1,.87,0,6.44,6.44,0,0,1,2.43,4.1s0,.08,0,.12a6.28,6.28,0,0,1-2,3.9,1.26,1.26,0,0,1-1.23.21,28,28,0,0,0-16-3.43,12.38,12.38,0,0,0-6.53,1.94,7,7,0,0,0,.27,11.51,9.1,9.1,0,0,0,2.71,1.16,26.69,26.69,0,0,0,19.13-2.49c.38-.21,1.11-.32,1.36-.07a6.87,6.87,0,0,1,2.21,3.39h1.16a2.11,2.11,0,0,0,0-.35,6.21,6.21,0,0,0-1.47-2.92c-.37-.42-.8-.77-1.24-1.21l2.86-2.38a10,10,0,0,1,3.34,6.51l0,.35H590c-.1-2.43-1.14-5-3.47-7.89.57-.78,1.11-1.47,1.58-2.21A10.72,10.72,0,0,0,590,558.16Zm-19.85-68.1a45.11,45.11,0,0,1-8.11-.52,7.07,7.07,0,0,1-3.11-1.44,5.43,5.43,0,0,1,.08-8.72,11.18,11.18,0,0,1,4.79-1.76,26.55,26.55,0,0,1,15.8,2.71c.29.14.56.34,1.08.66-1.32.77-2.44,1.49-3.63,2.05a2.15,2.15,0,0,1-1.37-.22,23.11,23.11,0,0,0-12.36-1.2,4.15,4.15,0,0,0-1.74.56,2.56,2.56,0,0,0-1.15,1.51,2,2,0,0,0,1,1.45,12.57,12.57,0,0,0,3.52,1c6,.62,11.73-.47,16.75-4.6a9,9,0,0,0,3.7-5.89,1.65,1.65,0,0,1,2.18-1.34c1,.27,1.35.95,1.2,2.13a11.75,11.75,0,0,1-3.69,6.92A22.44,22.44,0,0,1,570.15,490.06Zm4.59-6.27c-3.34,1.69-11.19,1.53-13.31-.35A21.78,21.78,0,0,1,574.74,483.79Zm.16,21.83a25.11,25.11,0,0,1-13.27.2c-2.16-.56-4.1-1.66-4.65-4.45-.51-2.57.31-4.91,2.45-6a16.37,16.37,0,0,1,5.26-1.53,25.67,25.67,0,0,1,14.95,2.82c.28.15.55.33,1.08.63-1.37.8-2.54,1.52-3.75,2.12-.26.14-.7,0-1-.16a23.92,23.92,0,0,0-12.26-1.36,5.48,5.48,0,0,0-2.1.61c-.5.26-1.17.89-1.16,1.35a2.18,2.18,0,0,0,1,1.59,10,10,0,0,0,3.14.92c6,.69,11.69-.19,16.73-4.23a15.1,15.1,0,0,0,2.77-2.87c1.81-2.45,1.7-4.62-.25-7-.37-.43-.8-.78-1.24-1.22,1-.87,2-1.62,2.86-2.38,3.5,3.22,4.72,8.2,1.52,12.7A21.23,21.23,0,0,1,574.9,505.62Zm-.33-5.36c-3.15,1.56-11.07,1.39-12.94-.27C563.8,498.45,571.2,498.61,574.57,500.26Zm-13.18,21.85a6.69,6.69,0,0,1-2-.94,5.64,5.64,0,0,1,.16-9.53,14.09,14.09,0,0,1,7-1.53,26.06,26.06,0,0,1,13.12,3l1,.56c-1.82,1.16-3.15,2.65-5.49,1.7a20.44,20.44,0,0,0-11.52-1.14,6.07,6.07,0,0,0-2.1.67c-.47.29-1.1.95-1.07,1.4a2.45,2.45,0,0,0,1.06,1.61,5.47,5.47,0,0,0,2.19.77c6.21.93,12.15.14,17.47-3.94a15.49,15.49,0,0,0,2.89-2.94c1.82-2.4,1.78-4.43,0-6.92-.38-.54-.79-1-1.22-1.57.92-.75,1.8-1.47,2.66-2.19a9.17,9.17,0,0,1,2.12,11.52,17.11,17.11,0,0,1-3.76,4.6C577.08,522.82,569.47,524,561.39,522.11Zm13.17-5.69c-2.16,1.77-11,1.65-13.11-.28A22.43,22.43,0,0,1,574.56,516.42Zm8,18.24c-6.17,4.43-12.94,5.36-20,4.1a9.13,9.13,0,0,1-3.78-1.75c-2.71-2.12-2.62-6.71.24-8.55a12.75,12.75,0,0,1,5.16-1.8,25.69,25.69,0,0,1,15.56,2.81,5,5,0,0,1,.54.31c.06,0,.1.12.28.38-1.18.68-2.31,1.39-3.48,2-.29.15-.77-.08-1.14-.23a23.36,23.36,0,0,0-12.72-1.26,6.44,6.44,0,0,0-2,.72,1.47,1.47,0,0,0,0,2.72,9.91,9.91,0,0,0,3.49,1.08c6.25.7,12.14-.37,17.3-4.76a14.07,14.07,0,0,0,2-2.19c1.83-2.48,1.82-4.53,0-7-.35-.49-.74-1-1.18-1.52l2.63-2.17A9.21,9.21,0,0,1,588,528.19,15.29,15.29,0,0,1,582.54,534.66Zm-8-1.65c-4.32,1.2-8.62,1.58-12.89-.28A18.74,18.74,0,0,1,574.57,533Zm5.51,19.57a25.18,25.18,0,0,1-18.75,2.22,5.45,5.45,0,0,1-4.39-4.59c-.37-2.22.28-4.45,2.08-5.41a15.74,15.74,0,0,1,5.41-1.78,25.28,25.28,0,0,1,16,3.18,4.43,4.43,0,0,1-5,1.88,23.47,23.47,0,0,0-11.9-1.15,7.74,7.74,0,0,0-2.31.8,1.45,1.45,0,0,0-.09,2.65,7.65,7.65,0,0,0,2.86,1c6.26.82,12.25,0,17.53-4.29a15.48,15.48,0,0,0,2.65-2.82c1.62-2.24,1.61-4.18.07-6.5-.41-.61-.9-1.17-1.39-1.8l2.62-2.18a9.29,9.29,0,0,1,1.9,12.06A18.25,18.25,0,0,1,580.08,552.58Zm-5.58-3.22c-4.29,1.23-8.57,1.55-12.82-.24A18.1,18.1,0,0,1,574.5,549.36Zm10.63,16.22a22.39,22.39,0,0,1-15,6.72,46,46,0,0,1-8.11-.51,7,7,0,0,1-3.11-1.45,5.43,5.43,0,0,1,.08-8.72,11.31,11.31,0,0,1,4.79-1.76,26.55,26.55,0,0,1,15.8,2.71c.29.16.56.34,1.08.67-1.32.76-2.44,1.48-3.63,2-.37.17-.93-.06-1.37-.22a23.21,23.21,0,0,0-12.36-1.19,4.15,4.15,0,0,0-1.74.56,2.56,2.56,0,0,0-1.15,1.51,1.94,1.94,0,0,0,1,1.44,12.59,12.59,0,0,0,3.52,1c6,.61,11.73-.47,16.75-4.6a9.74,9.74,0,0,0,3.32-4.36,7.14,7.14,0,0,0,.38-1.53.93.93,0,0,1,0-.22,7.42,7.42,0,0,0-.37-1.7,9,9,0,0,0-2.45-3.45c1-.86,2-1.6,2.9-2.4a11.26,11.26,0,0,1,3.12,5.54,10.31,10.31,0,0,1,.21,1.42,2.24,2.24,0,0,1-.06.75,3.48,3.48,0,0,1,0,.85,9.25,9.25,0,0,1-.23,1.21A12.16,12.16,0,0,1,585.13,565.58Zm-10.39.46c-3.34,1.68-11.19,1.52-13.31-.35A21.78,21.78,0,0,1,574.74,566Z"/><text class="cls-5" transform="translate(60.71 121.48)">Iôiô</text><text class="cls-5" transform="translate(898.95 908.72)">1</text></svg>