<svg id="Camada_1" data-name="Camada 1" xmlns="http://www.w3.org/2000/svg" viewBox="0 0 1920 1080"><defs><style>.cls-1{fill:#d5d5d5;}.cls-2{fill:#dc0d1d;}</style></defs><title>Prancheta 1</title><path class="cls-1" d="M1347,1q284.74,0,569.5-.09c3.75,0,4.59.84,4.59,4.59q-.15,535.5,0,1071c0,3.75-.84,4.59-4.59,4.59q-552.75-.15-1105.5-.09c-.38-1.3.57-2.22,1.06-3.21,11.92-24.16,24-48.24,35.84-72.44,24.2-49.44,49.44-98.36,73.44-147.91,23.87-49.27,49.18-97.84,73.07-147.11,24.14-49.79,49.65-98.9,73.79-148.7,23.6-48.69,48.57-96.72,72.22-145.4,24.56-50.53,50.46-100.41,75-151,23.54-48.51,48.42-96.36,71.95-144.88C1306.76,80.36,1327.08,40.78,1347,1Z"/><path d="M676,1081q-335.25,0-670.5.09c-3.75,0-4.59-.84-4.59-4.59Q1.06,541,.91,5.5C.91,1.75,1.75.91,5.5.91Q380.76,1.06,756,1c-.29,8.75-1.28,17.44-1.87,26.16-1.2,17.64-2.47,35.27-4,52.89-1.16,13-2,26-3,39.05-1.31,18.31-2.52,36.62-4.12,54.91-1.15,13.14-1.78,26.33-2.95,39.49-1.41,15.8-1.82,31.69-3.25,47.48-.47,5.14-.4,10.27-.94,15.36-1.82,16.93-2.72,33.92-3.93,50.89q-1.07,15.09-2.17,30.16c-.91,12.35-2,24.67-2.86,37-.35,5.28-.58,10.6-1.1,15.84-1.7,17.09-2.58,34.24-3.88,51.36-.75,9.9-1.46,19.79-2.07,29.7-1,16.49-2.46,33-3.93,49.42-.51,5.6-.75,11.2-1.11,16.79-1.07,16.16-2.58,32.29-3.83,48.44-.79,10.22-1.38,20.46-2.16,30.68-1.24,16.14-2.63,32.26-3.83,48.39-.8,10.73-1.27,21.48-2.09,32.21-1.22,16-2.7,31.9-3.91,47.86-.83,11-1.08,22.13-2.15,33.14-1.65,17.11-2.76,34.26-3.93,51.4-.68,9.9-1.32,19.82-2.14,29.7-1.42,17.11-2.64,34.24-3.86,51.36-.69,9.57-1.13,19.19-2.17,28.7-1.62,14.77-2.07,29.62-3.67,44.39-1.19,11-1.27,22.14-2.17,33.18C677.72,1051.64,676.09,1066.27,676,1081Z"/><path class="cls-2" d="M676,1081c.09-14.73,1.72-29.36,2.93-44,.9-11,1-22.17,2.17-33.18,1.6-14.77,2-29.62,3.67-44.39,1-9.51,1.48-19.13,2.17-28.7,1.22-17.12,2.44-34.25,3.86-51.36.82-9.88,1.46-19.8,2.14-29.7,1.17-17.14,2.28-34.29,3.93-51.4,1.07-11,1.32-22.1,2.15-33.14,1.21-16,2.69-31.9,3.91-47.86.82-10.73,1.29-21.48,2.09-32.21,1.2-16.13,2.59-32.25,3.83-48.39.78-10.22,1.37-20.46,2.16-30.68,1.25-16.15,2.76-32.28,3.83-48.44.36-5.59.6-11.19,1.11-16.79,1.47-16.46,2.93-32.93,3.93-49.42.61-9.91,1.32-19.8,2.07-29.7,1.3-17.12,2.18-34.27,3.88-51.36.52-5.24.75-10.56,1.1-15.84.81-12.36,2-24.68,2.86-37q1.13-15.06,2.17-30.16c1.21-17,2.11-34,3.93-50.89.54-5.09.47-10.22.94-15.36,1.43-15.79,1.84-31.68,3.25-47.48,1.17-13.16,1.8-26.35,2.95-39.49,1.6-18.29,2.81-36.6,4.12-54.91.93-13,1.79-26,3-39,1.56-17.62,2.83-35.25,4-52.89C754.72,18.44,755.71,9.75,756,1h55c0,3.33.16,6.68-.16,10-1.18,12.28-2.58,24.54-3.82,36.81-.78,7.71-1.33,15.44-2.14,23.14-1.22,11.61-2.65,23.2-3.86,34.81-.83,8-1.35,16.07-2.14,24.09-1.24,12.61-2.62,25.21-3.88,37.82-.78,7.87-1.37,15.77-2.18,23.64-1.21,11.77-2.61,23.53-3.8,35.31-.81,8-1.15,16.12-2.16,24.13-1.61,12.74-2.78,25.52-3.9,38.3-.68,7.72-1.54,15.42-2.15,23.15-.92,11.63-2.58,23.19-3.78,34.79-.84,8-1.36,16.09-2.16,24.13-1.23,12.28-2.72,24.53-3.8,36.83-.66,7.37-1.82,14.68-2.31,22.1-.8,12.29-2.52,24.52-3.74,36.79-.81,8-1.35,16.1-2.15,24.14-1.22,12.27-2.61,24.53-3.85,36.8-.78,7.71-1.17,15.46-2.17,23.14-1.64,12.57-2.79,25.19-3.86,37.81-.65,7.72-1.29,15.43-2.09,23.13-1.23,11.77-2.68,23.52-3.87,35.3-.83,8.19-.92,16.49-2.19,24.6-1.81,11.56-2.33,23.22-3.75,34.8s-2,23.3-3.15,34.93c-1.49,14.37-3.41,28.71-4.89,43.08-1.22,11.81-1.91,23.66-3.11,35.47-1.85,18.16-4.23,36.28-5.84,54.46q-2.25,25.32-5,50.59c-1.84,16.74-3.13,33.53-4.77,51.43,1.83-4.61,3.33-8.19,4.67-11.84,9.47-25.79,18.83-51.63,28.38-77.39q19-51.3,38.3-102.52,15.52-41.55,31-83.1c9.32-25.15,18.44-50.38,27.76-75.54q17.47-47.15,35.13-94.25,16-42.93,31.92-85.9,18-48.52,36.08-97.06,16.08-43.22,32.18-86.41c11.94-32.15,23.77-64.35,35.74-96.49,11.36-30.51,22.86-61,34.23-91.46Q1063.44,37.8,1077,1h270c-19.92,39.78-40.24,79.36-59.64,119.39-23.53,48.52-48.41,96.37-71.95,144.88-24.53,50.55-50.43,100.43-75,151-23.65,48.68-48.62,96.71-72.22,145.4-24.14,49.8-49.65,98.91-73.79,148.7-23.89,49.27-49.2,97.84-73.07,147.11-24,49.55-49.24,98.47-73.44,147.91-11.84,24.2-23.92,48.28-35.84,72.44-.49,1-1.44,1.91-1.06,3.21Z"/><path class="cls-1" d="M1077,1q-13.63,36.78-27.27,73.54c-11.37,30.5-22.87,61-34.23,91.46-12,32.14-23.8,64.34-35.74,96.49q-16,43.23-32.18,86.41Q929.52,397.43,911.5,446q-16,43-31.92,85.9Q862,579,844.45,626.11c-9.32,25.16-18.44,50.39-27.76,75.54q-15.42,41.6-31,83.1Q766.51,836,747.36,887.27c-9.55,25.76-18.91,51.6-28.38,77.39-1.34,3.65-2.84,7.23-4.67,11.84,1.64-17.9,2.93-34.69,4.77-51.43s3.52-33.71,5-50.59c1.61-18.18,4-36.3,5.84-54.46,1.2-11.81,1.89-23.66,3.11-35.47,1.48-14.37,3.4-28.71,4.89-43.08,1.2-11.63,1.73-23.33,3.15-34.93s1.94-23.24,3.75-34.8c1.27-8.11,1.36-16.41,2.19-24.6,1.19-11.78,2.64-23.53,3.87-35.3.8-7.7,1.44-15.41,2.09-23.13,1.07-12.62,2.22-25.24,3.86-37.81,1-7.68,1.39-15.43,2.17-23.14,1.24-12.27,2.63-24.53,3.85-36.8.8-8,1.34-16.1,2.15-24.14,1.22-12.27,2.94-24.5,3.74-36.79.49-7.42,1.65-14.73,2.31-22.1,1.08-12.3,2.57-24.55,3.8-36.83.8-8,1.32-16.1,2.16-24.13,1.2-11.6,2.86-23.16,3.78-34.79.61-7.73,1.47-15.43,2.15-23.15,1.12-12.78,2.29-25.56,3.9-38.3,1-8,1.35-16.1,2.16-24.13,1.19-11.78,2.59-23.54,3.8-35.31.81-7.87,1.4-15.77,2.18-23.64,1.26-12.61,2.64-25.21,3.88-37.82.79-8,1.31-16.07,2.14-24.09,1.21-11.61,2.64-23.2,3.86-34.81.81-7.7,1.36-15.43,2.14-23.14,1.24-12.27,2.64-24.53,3.82-36.81.32-3.3.12-6.65.16-10Z"/></svg>